<?xml version="1.0" standalone="no"?>
<!DOCTYPE svg PUBLIC "-//W3C//DTD SVG 20010904//EN"
 "http://www.w3.org/TR/2001/REC-SVG-20010904/DTD/svg10.dtd">
<svg version="1.0" xmlns="http://www.w3.org/2000/svg"
 width="190.000000pt" height="190.000000pt" viewBox="0 0 190.000000 190.000000"
 preserveAspectRatio="xMidYMid meet">
<metadata>
Created by potrace 1.11, written by Peter Selinger 2001-2013
</metadata>
<g transform="translate(0.000000,190.000000) scale(0.100000,-0.100000)"
fill="#000000" stroke="none">
<path d="M600 1850 l0 -50 -50 0 -50 0 0 -50 0 -50 -50 0 -50 0 0 -50 0 -50
-50 0 -50 0 0 -300 0 -300 -50 0 -50 0 0 -100 0 -100 50 0 50 0 0 -100 0 -100
50 0 50 0 0 -50 0 -50 100 0 100 0 0 -50 0 -50 -50 0 -50 0 0 -100 0 -100 50
0 50 0 0 -100 0 -100 50 0 50 0 0 50 0 50 300 0 300 0 0 -50 0 -50 50 0 50 0
0 100 0 100 50 0 50 0 0 100 0 100 -50 0 -50 0 0 50 0 50 100 0 100 0 0 50 0
50 50 0 50 0 0 500 0 500 -50 0 -50 0 0 50 0 50 -100 0 -100 0 0 50 0 50 -50
0 -50 0 0 50 0 50 -200 0 -200 0 0 -50 0 -50 -50 0 -50 0 0 50 0 50 -100 0
-100 0 0 -50z m200 -100 l0 -50 -50 0 -50 0 0 -100 0 -100 -50 0 -50 0 0 100
0 100 50 0 50 0 0 50 0 50 50 0 50 0 0 -50z m300 -100 l0 -50 50 0 50 0 0 50
0 50 50 0 50 0 0 -50 0 -50 50 0 50 0 0 -50 0 -50 -50 0 -50 0 0 50 0 50 -50
0 -50 0 0 -50 0 -50 -50 0 -50 0 0 50 0 50 -50 0 -50 0 0 -50 0 -50 -100 0
-100 0 0 50 0 50 50 0 50 0 0 50 0 50 100 0 100 0 0 -50z m500 -350 l0 -200
-150 0 -150 0 0 50 0 50 -50 0 -50 0 0 -50 0 -50 -250 0 -250 0 0 150 0 150
400 0 400 0 0 50 0 50 50 0 50 0 0 -200z m-800 -400 l0 -100 50 0 50 0 0 100
0 100 250 0 250 0 0 -100 0 -100 50 0 50 0 0 100 0 100 50 0 50 0 0 -200 0
-200 -250 0 -250 0 0 50 0 50 -100 0 -100 0 0 -50 0 -50 -100 0 -100 0 0 200
0 200 50 0 50 0 0 -100z m500 -500 l0 -100 -50 0 -50 0 0 50 0 50 -50 0 -50 0
0 -50 0 -50 -100 0 -100 0 0 50 0 50 -100 0 -100 0 0 50 0 50 300 0 300 0 0
-100z"/>
</g>
</svg>
